HIERARCHY
ROOT hip
{
	OFFSET 0.000000 0.000000 0.000000 
	CHANNELS 6 Xposition Yposition Zposition Xrotation Zrotation Yrotation
	JOINT abdomen
	{
		OFFSET 0.000000 3.402643 0.000000 
		CHANNELS 3 Xrotation Zrotation Yrotation
		JOINT chest
		{
			OFFSET 0.000000 8.438565 -0.680529 
			CHANNELS 3 Xrotation Zrotation Yrotation
			JOINT neck
			{
				OFFSET 0.000000 10.207942 -0.272212 
				CHANNELS 3 Xrotation Zrotation Yrotation
				JOINT head
				{
					OFFSET 0.000000 3.130431 0.000000 
					CHANNELS 3 Xrotation Zrotation Yrotation
					End Site
					{
						OFFSET 0.000000 3.130435 0.000000 
					}
				}
			}
			JOINT lCollar
			{
				OFFSET 3.470700 6.669187 -0.816635 
				CHANNELS 3 Yrotation Zrotation Xrotation
				JOINT lShldr
				{
					OFFSET 3.198488 0.000000 0.000000 
					CHANNELS 3 Zrotation Yrotation Xrotation
					JOINT lForeArm
					{
						OFFSET 10.139888 0.000000 0.000000 
						CHANNELS 3 Yrotation Zrotation Xrotation
						JOINT lHand
						{
							OFFSET 8.370511 0.000000 0.000000 
							CHANNELS 3 Zrotation Yrotation Xrotation
							End Site
							{
								OFFSET 4.083176 0.000000 0.000000 
							}
						}
					}
				}
			}
			JOINT rCollar
			{
				OFFSET -3.470700 6.669187 -0.816635 
				CHANNELS 3 Yrotation Zrotation Xrotation
				JOINT rShldr
				{
					OFFSET -3.198488 0.000000 0.000000 
					CHANNELS 3 Zrotation Yrotation Xrotation
					JOINT rForeArm
					{
						OFFSET -10.139888 0.000000 0.000000 
						CHANNELS 3 Yrotation Zrotation Xrotation
						JOINT rHand
						{
							OFFSET -8.370511 0.000000 0.000000 
							CHANNELS 3 Zrotation Yrotation Xrotation
							End Site
							{
								OFFSET -4.083176 0.000000 0.000000 
							}
						}
					}
				}
			}
		}
	}
	JOINT lThigh
	{
		OFFSET 5.308129 -1.633274 1.361059 
		CHANNELS 3 Xrotation Zrotation Yrotation
		JOINT lShin
		{
			OFFSET -2.041588 -20.007561 0.000000 
			CHANNELS 3 Xrotation Zrotation Yrotation
			JOINT lFoot
			{
				OFFSET 0.000000 -19.190928 -1.224953 
				CHANNELS 3 Xrotation Yrotation Zrotation
				End Site
				{
					OFFSET 0.000000 -2.449906 4.627600 
				}
			}
		}
	}
	JOINT rThigh
	{
		OFFSET -5.308129 -1.633274 1.361059 
		CHANNELS 3 Xrotation Zrotation Yrotation
		JOINT rShin
		{
			OFFSET 2.041588 -20.007561 0.000000 
			CHANNELS 3 Xrotation Zrotation Yrotation
			JOINT rFoot
			{
				OFFSET 0.000000 -19.190928 -1.224953 
				CHANNELS 3 Xrotation Yrotation Zrotation
				End Site
				{
					OFFSET 0.000000 -2.449906 4.627600 
				}
			}
		}
	}
}
MOTION
Frames: 19
Frame Time: 0.033333
-0.078372 39.994053 0.072645 15.496866 -2.228719 -4.730195 0.000000 0.000000 0.000000 5.697303 -1.456906 5.968585 -4.315641 2.939435 0.205810 -19.566515 -1.347415 1.084144 6.510641 22.637760 21.825151 -91.374924 -9.223912 -0.933474 -112.907700 2.200176 99.743347 10.346323 1.444313 -61.081287 -12.184976 -21.571369 19.591602 69.898376 12.113252 70.028999 117.543251 -67.145271 60.816010 8.018393 -3.129471 -81.312668 -39.826794 11.020836 16.125647 85.173599 19.775412 1.195178 -24.035658 -2.258948 -40.244232 -42.361534 -3.661596 1.837152 78.097527 -8.055075 4.476037 -14.720695 -8.185122 82.239197 
-0.111890 41.130028 0.332849 15.129168 -2.834233 -4.185189 0.000000 0.000000 0.000000 4.015464 -0.796140 6.172363 -1.352063 3.544890 0.244881 -17.875437 -1.591791 0.156190 7.066401 24.264769 21.383818 -90.000000 -19.746092 -1.552734 -114.614990 0.208344 95.370918 7.718543 -0.697454 -61.295116 -14.124346 -23.200975 18.390472 67.523293 20.773336 66.859001 123.608635 -67.103485 64.632591 7.774564 -2.875145 -81.443863 -36.802002 10.797993 16.635826 80.320518 20.215734 1.393707 -19.907667 -3.907522 -38.455902 -38.686592 -3.251544 1.772337 73.260284 -7.782690 4.117022 -10.753104 -7.425328 81.815536 
-0.149352 42.986732 0.690069 15.371631 -3.439914 -3.747549 0.000000 0.000000 0.000000 1.534295 -0.164988 6.376956 1.809172 4.306584 0.294342 -15.856665 -1.786971 -0.713457 8.084783 26.070173 20.678164 -87.577820 -27.531843 -2.580631 -116.970337 -0.260723 87.993591 7.221926 -2.587544 -61.579681 -16.327795 -24.572510 17.032150 65.248138 28.375277 63.953384 -48.152229 -111.326103 -106.600426 7.941914 -1.306798 -81.682831 -32.694809 10.907809 17.443510 71.978600 20.128614 1.548066 -12.245440 -8.392148 -38.124287 -34.197762 -3.046873 1.592301 65.360168 -7.216711 3.497373 -3.699321 -4.628093 82.387665 
-0.185206 45.327942 1.060651 16.084337 -3.879635 -3.465618 0.000000 0.000000 0.000000 -1.229810 0.261965 6.523548 4.737287 5.058504 0.343910 -14.000437 -1.903822 -1.280213 9.226087 27.504398 19.896830 -83.199928 -32.644920 -4.596715 -119.149879 0.548891 78.770218 8.225330 -3.724686 -61.985970 -18.358263 -25.212337 15.868681 61.569866 33.081398 60.808250 -37.316093 -110.236740 -94.696373 7.343061 0.529041 -81.987534 -28.049904 11.322280 18.359684 60.874096 18.850758 1.580963 -2.169837 -14.666628 -36.685860 -29.562168 -2.987604 1.382795 55.252823 -6.619331 2.677441 5.447329 -1.174452 82.770576 
-0.200819 47.857964 1.384296 16.979322 -4.163514 -3.182460 0.000000 0.000000 0.000000 -3.717365 0.533527 6.621442 7.186473 5.702999 0.382856 -12.529365 -2.030407 -1.651430 10.158391 28.799534 19.205528 -78.079826 -35.442772 -7.040709 -121.153419 2.477926 69.571320 9.631575 -4.870591 -62.498096 -20.235880 -25.390898 14.898762 56.362812 35.295681 57.378963 -27.074442 -110.168396 -84.169647 6.145316 1.487580 -82.255310 -23.640892 11.804868 19.200882 48.986832 16.537262 1.566522 8.724925 -20.583080 -33.498569 -25.414127 -3.144154 1.154297 44.674629 -5.966344 1.743792 15.012455 1.523032 82.216194 
-0.199612 50.365898 1.634160 17.774712 -4.330559 -2.860375 0.000000 0.000000 0.000000 -5.574779 0.678953 6.680257 9.106996 6.191247 0.413030 -11.522935 -2.147334 -1.837575 10.689547 29.733210 18.761488 -72.415909 -35.933163 -9.822515 -123.277733 4.895844 61.382282 10.796219 -6.012337 -63.007389 -21.796041 -25.020205 14.264988 51.621353 35.868038 54.611580 -18.215700 -110.583191 -74.873329 5.675164 2.283783 -82.380249 -20.056316 12.155419 19.821161 38.352428 13.895272 1.520027 18.628769 -24.511808 -30.302879 -22.144579 -3.437034 0.898333 35.249294 -5.376112 1.001608 23.146400 2.542591 80.606979 
-0.191722 52.573963 1.784723 18.154598 -4.419510 -2.537574 0.000000 0.000000 0.000000 -6.395510 0.756518 6.699922 10.421193 6.503714 0.443262 -10.980455 -2.254638 -1.886380 10.672039 29.992819 18.671377 -67.118065 -33.995300 -12.426122 -125.617973 7.063451 55.363319 11.330866 -6.982764 -63.351799 -22.819830 -24.329727 14.045997 48.348934 34.962452 53.075420 -12.537217 -111.415581 -68.700600 6.092559 2.804447 -82.333191 -17.927357 12.506379 20.195827 31.808153 11.890503 1.461522 24.307737 -25.849794 -29.803711 -20.265692 -3.739062 0.742801 29.417225 -4.774448 0.513389 27.694197 1.811466 80.434158 
-0.190794 54.379978 1.856169 18.177935 -4.517912 -2.282932 0.000000 0.000000 0.000000 -6.412126 0.863189 6.709838 11.175889 6.708777 0.452988 -10.644404 -2.352215 -1.906299 10.495671 29.989311 18.679375 -63.381512 -30.555504 -14.242078 -127.978172 8.659951 51.787537 11.223705 -7.526940 -63.429817 -23.322256 -23.950859 13.952018 47.138180 33.163960 52.888409 -9.376274 -112.324631 -65.105972 6.813812 2.830177 -82.206886 -17.215805 12.957415 20.440783 29.643711 10.768964 1.350545 25.671764 -25.253109 -30.858887 -19.622986 -3.973303 0.629092 27.257349 -4.300173 0.481773 28.630224 -0.034921 81.276825 
-0.202399 55.727665 1.869669 17.818439 -4.683984 -2.224541 0.000000 0.000000 0.000000 -5.608300 1.047359 6.758999 11.235026 6.777135 0.452994 -10.516707 -2.449899 -1.847773 10.440806 29.994278 18.590977 -61.936081 -25.944326 -15.038160 -130.356094 9.526947 50.745872 10.680415 -7.284970 -63.223907 -23.192589 -24.123762 13.948204 47.991962 30.360014 54.034081 -7.696867 -113.535042 -63.567719 7.401237 2.170008 -82.076111 -17.536531 13.628674 20.649525 31.016899 10.420374 1.166672 24.326538 -23.461994 -29.804651 -19.686983 -3.954982 0.633997 27.659044 -3.958725 0.598754 27.312813 -1.707221 81.345535 
-0.220134 56.689568 1.853551 17.237919 -4.839756 -2.333230 0.000000 0.000000 0.000000 -4.284690 1.250936 6.788896 10.746202 6.708777 0.452988 -10.592464 -2.528284 -1.622962 10.530521 29.993505 18.439049 -62.252975 -20.459669 -15.121864 -132.648026 9.678024 51.480606 10.096537 -6.556902 -62.887806 -22.578989 -24.634596 14.033690 49.974667 26.691051 55.930927 -7.185450 -115.050262 -64.049538 7.728387 1.232901 -81.981339 -18.365011 14.387606 20.850554 34.191189 10.513776 0.985589 21.995134 -21.427988 -24.551409 -19.997875 -3.768979 0.698337 28.983475 -3.823138 0.733890 25.321352 -2.586912 80.687897 
-0.236042 57.345589 1.828742 16.681765 -4.936655 -2.519778 0.000000 0.000000 0.000000 -2.809499 1.415730 6.808896 9.933064 6.523245 0.443264 -10.812199 -2.567728 -1.270881 10.672084 29.997036 18.283884 -63.585243 -14.392643 -14.835164 -134.654892 9.226088 53.205181 9.833391 -5.713129 -62.610413 -21.674183 -25.128611 14.277782 52.107311 22.299324 57.969994 -7.773993 -116.796097 -66.496498 7.896012 0.519521 -81.920197 -19.419491 15.129485 20.976004 37.631523 10.771579 0.872940 19.739597 -19.957539 -15.457099 -20.319548 -3.515312 0.782383 30.055014 -3.896145 0.798630 23.716726 -2.477941 79.971382 
-0.246673 57.704845 1.798939 16.347534 -4.945642 -2.715205 0.000000 0.000000 0.000000 -1.489323 1.512697 6.809155 8.962076 6.259597 0.422742 -11.201562 -2.519235 -0.879774 10.751582 29.992477 18.224398 -65.533478 -7.948606 -14.373513 -136.213455 8.208214 55.626026 10.099694 -4.927614 -62.434746 -20.629913 -25.450874 14.681656 53.959713 17.245621 59.911476 -9.519407 -118.657433 -70.502914 8.031705 0.287699 -81.885002 -20.759895 15.758745 21.037718 40.872326 11.138593 0.769766 17.882355 -19.630566 -6.985696 -20.832634 -3.290132 0.898843 30.769585 -4.150188 0.824316 22.729774 -1.805520 79.549629 
-0.247422 57.704914 1.768258 16.386221 -4.896301 -2.852256 0.000000 0.000000 0.000000 -0.566722 1.551484 6.809157 7.902831 5.917824 0.403291 -11.713716 -2.441283 -0.576897 10.628624 29.991259 18.336525 -67.880440 -1.347052 -13.783058 -137.271439 6.705319 58.609859 10.925116 -4.264290 -62.372719 -19.604582 -25.477186 15.170505 55.182655 11.594004 61.543419 -12.319293 -120.708839 -75.187103 8.168635 0.410633 -81.848549 -22.388554 16.214457 20.999952 43.542309 11.559258 0.721985 17.145493 -20.148701 -4.211141 -21.732689 -3.182683 0.941840 31.213551 -4.515921 0.797626 22.442123 -0.745120 79.244164 
-0.233229 57.362606 1.734131 16.762205 -4.798765 -2.852251 0.000000 0.000000 0.000000 -0.008300 1.570942 6.789901 6.745023 5.546759 0.373132 -12.216010 -2.382726 -0.489077 10.316335 29.995842 18.595444 -70.588661 5.095041 -12.983554 -137.807175 4.945101 62.086857 12.168530 -3.668825 -62.391140 -18.693197 -25.307341 15.674837 55.941914 5.626009 62.881603 -15.760328 -122.797279 -79.338989 8.023675 0.639920 -81.854401 -24.283787 16.469915 20.788561 45.674442 11.950317 0.717086 17.320978 -21.240623 -8.115270 -23.041384 -3.300166 0.976063 31.781919 -4.750593 0.802657 22.656576 0.267945 78.640129 
-0.195933 56.681812 1.686585 17.405186 -4.614020 -2.704639 0.000000 0.000000 0.000000 0.242141 1.541850 6.789633 5.480061 5.156157 0.343924 -12.717836 -2.372901 -0.635434 9.817784 29.990530 18.954676 -73.745064 11.125359 -11.793015 -137.773071 3.274164 66.210083 13.688182 -2.907266 -62.409126 -17.912201 -25.070595 16.122314 56.500229 -0.374321 64.032066 -19.605137 -124.753258 -82.554474 7.433430 0.870030 -81.900337 -26.440346 16.477942 20.457047 47.394100 12.379847 0.702766 18.143850 -22.508949 -16.635651 -24.837324 -3.690654 0.946799 32.703629 -4.849000 0.860090 23.246952 1.194894 77.535515 
-0.137967 55.605469 1.613461 18.280758 -4.331995 -2.448443 0.000000 0.000000 0.000000 0.248235 1.435269 6.760086 4.050193 4.746019 0.323585 -13.182271 -2.441072 -0.948486 9.220588 29.988430 19.345625 -77.395615 16.393488 -9.985961 -137.244659 2.024075 71.096542 15.186067 -1.990723 -62.356548 -17.198099 -24.806505 16.549892 57.073074 -5.865091 65.068626 -23.840689 -126.441788 -85.054703 6.674056 0.958592 -81.974457 -28.867025 16.318253 19.960300 48.957432 12.701944 0.703054 18.679075 -23.206123 -24.029955 -27.140814 -4.334934 0.858481 34.358906 -4.819185 1.035597 23.938112 2.096891 75.710907 
-0.072243 54.124805 1.507210 19.262726 -4.010820 -2.163844 0.000000 0.000000 0.000000 0.139003 1.260786 6.730317 2.503578 4.365173 0.304086 -13.634027 -2.567719 -1.280637 8.606638 29.996119 19.742069 -81.389145 20.569870 -7.449026 -136.223145 1.489233 76.678268 16.492119 -0.942915 -62.206161 -16.534517 -24.471222 16.956232 57.796925 -10.351198 66.073502 -28.428129 -127.735535 -87.303474 6.118921 0.871274 -81.985870 -31.531967 16.082735 19.404753 50.687222 12.905104 0.656930 18.268517 -23.110046 -27.463812 -29.973534 -5.106278 0.757891 37.049778 -4.732429 1.313812 24.383387 3.120474 73.555634 
-0.018527 52.302357 1.367266 20.191847 -3.708885 -1.908520 0.000000 0.000000 0.000000 0.088361 1.086303 6.690837 0.849358 4.033157 0.274134 -14.060839 -2.665097 -1.505912 8.042171 29.993792 20.101686 -85.416061 23.475658 -4.376483 -134.651917 1.803688 82.637283 17.792946 0.167734 -62.007252 -15.945227 -24.002174 17.362354 58.709499 -13.476032 67.076881 -33.216736 -128.464203 -89.759834 5.952747 0.731903 -81.935455 -34.489086 15.993153 18.828751 53.161926 13.022998 0.590971 16.664841 -22.444918 -27.265726 -33.184963 -5.780123 0.733557 40.949245 -4.667000 1.680876 24.078360 4.226617 72.294106 
0.016121 50.102737 1.187990 20.862564 -3.475101 -1.663614 0.000000 0.000000 0.000000 0.376062 0.882727 6.631724 -0.939479 3.808553 0.264387 -14.573820 -2.733357 -1.564448 7.526003 29.824905 20.428274 -89.344849 24.632137 -1.110008 -132.681747 2.888347 88.624672 18.812254 1.251200 -61.744781 -15.385759 -23.356773 17.791935 59.918865 -14.775550 68.143806 -38.078327 -128.338242 -92.443855 6.010497 0.565687 -81.839714 -37.768448 16.069899 18.182972 57.126289 13.306801 0.480602 13.314455 -21.456619 -26.330505 -36.792789 -6.307995 0.750593 46.582172 -4.810657 2.243386 21.559944 5.061790 73.285889 
